HIERARCHY
ROOT hip
{
	OFFSET 0.000000 0.000000 0.000000 
	CHANNELS 6 Xposition Yposition Zposition Xrotation Zrotation Yrotation
	JOINT abdomen
	{
		OFFSET 0.000000 3.402643 0.000000 
		CHANNELS 3 Xrotation Zrotation Yrotation
		JOINT chest
		{
			OFFSET 0.000000 8.438565 -0.680529 
			CHANNELS 3 Xrotation Zrotation Yrotation
			JOINT neck
			{
				OFFSET 0.000000 10.207942 -0.272212 
				CHANNELS 3 Xrotation Zrotation Yrotation
				JOINT head
				{
					OFFSET 0.000000 3.130431 0.000000 
					CHANNELS 3 Xrotation Zrotation Yrotation
					End Site
					{
						OFFSET 0.000000 3.130435 0.000000 
					}
				}
			}
			JOINT lCollar
			{
				OFFSET 3.470700 6.669187 -0.816635 
				CHANNELS 3 Yrotation Zrotation Xrotation
				JOINT lShldr
				{
					OFFSET 3.198488 0.000000 0.000000 
					CHANNELS 3 Zrotation Yrotation Xrotation
					JOINT lForeArm
					{
						OFFSET 10.139888 0.000000 0.000000 
						CHANNELS 3 Yrotation Zrotation Xrotation
						JOINT lHand
						{
							OFFSET 8.370511 0.000000 0.000000 
							CHANNELS 3 Zrotation Yrotation Xrotation
							End Site
							{
								OFFSET 4.083176 0.000000 0.000000 
							}
						}
					}
				}
			}
			JOINT rCollar
			{
				OFFSET -3.470700 6.669187 -0.816635 
				CHANNELS 3 Yrotation Zrotation Xrotation
				JOINT rShldr
				{
					OFFSET -3.198488 0.000000 0.000000 
					CHANNELS 3 Zrotation Yrotation Xrotation
					JOINT rForeArm
					{
						OFFSET -10.139888 0.000000 0.000000 
						CHANNELS 3 Yrotation Zrotation Xrotation
						JOINT rHand
						{
							OFFSET -8.370511 0.000000 0.000000 
							CHANNELS 3 Zrotation Yrotation Xrotation
							End Site
							{
								OFFSET -4.083176 0.000000 0.000000 
							}
						}
					}
				}
			}
		}
	}
	JOINT lThigh
	{
		OFFSET 5.308129 -1.633274 1.361059 
		CHANNELS 3 Xrotation Zrotation Yrotation
		JOINT lShin
		{
			OFFSET -2.041588 -20.007561 0.000000 
			CHANNELS 3 Xrotation Zrotation Yrotation
			JOINT lFoot
			{
				OFFSET 0.000000 -19.190928 -1.224953 
				CHANNELS 3 Xrotation Yrotation Zrotation
				End Site
				{
					OFFSET 0.000000 -2.449906 4.627600 
				}
			}
		}
	}
	JOINT rThigh
	{
		OFFSET -5.308129 -1.633274 1.361059 
		CHANNELS 3 Xrotation Zrotation Yrotation
		JOINT rShin
		{
			OFFSET 2.041588 -20.007561 0.000000 
			CHANNELS 3 Xrotation Zrotation Yrotation
			JOINT rFoot
			{
				OFFSET 0.000000 -19.190928 -1.224953 
				CHANNELS 3 Xrotation Yrotation Zrotation
				End Site
				{
					OFFSET 0.000000 -2.449906 4.627600 
				}
			}
		}
	}
}
MOTION
Frames: 18
Frame Time: 0.011111
0.000000 -3.972732 0.000000 0.000000 0.000000 0.000000 4.160801 -2.109345 -0.267163 -4.153792 2.123133 0.113318 2.076625 4.183936 -0.428290 0.000000 0.000000 0.000000 12.413046 -14.960623 4.251975 32.937302 -40.059605 -6.776371 -29.003906 0.000000 0.000000 6.992188 16.005859 -44.997307 -6.427974 8.898234 2.089853 -23.562155 30.635885 -4.234776 28.994143 0.000000 0.000000 -7.001954 -15.996095 45.009769 -2.421529 22.278831 2.980507 3.503625 -5.046453 0.014789 -5.308388 -0.795328 -0.765557 -2.411816 -22.318930 -3.020798 3.503799 5.034272 -0.024803 -5.287191 0.780692 0.753910 
0.000000 -3.972732 0.000000 0.000000 0.000000 0.000000 4.160801 -2.109345 -0.267163 -4.153792 2.123133 0.113318 2.076625 4.183936 -0.428290 0.000000 0.000000 0.000000 12.413046 -14.960623 4.251975 32.937302 -40.059605 -6.776371 -29.003906 0.000000 0.000000 6.992188 16.005859 -44.997307 -6.427974 8.898234 2.089853 -23.562155 30.635885 -4.234776 28.994143 0.000000 0.000000 -7.001954 -15.996095 45.009769 -2.421529 22.278831 2.980507 3.503625 -5.046453 0.014789 -5.308388 -0.795328 -0.765557 -2.411816 -22.318930 -3.020798 3.503799 5.034272 -0.024803 -5.287191 0.780692 0.753910 
0.000000 -3.972732 0.000000 0.000000 0.000000 0.000000 4.160801 -2.109345 -0.267163 -4.153792 2.123133 0.113318 2.076625 4.183936 -0.428290 0.000000 0.000000 0.000000 12.413046 -14.960623 4.251975 32.937302 -40.059605 -6.776371 -29.003906 0.000000 0.000000 6.992188 16.005859 -44.997307 -6.427974 8.898234 2.089853 -23.562155 30.635885 -4.234776 28.994143 0.000000 0.000000 -7.001954 -15.996095 45.009769 -2.421529 22.278831 2.980507 3.503625 -5.046453 0.014789 -5.308388 -0.795328 -0.765557 -2.411816 -22.318930 -3.020798 3.503799 5.034272 -0.024803 -5.287191 0.780692 0.753910 
0.000000 -3.972732 0.000000 0.000000 0.000000 0.000000 4.160801 -2.109345 -0.267163 -4.153792 2.123133 0.113318 2.076625 4.183936 -0.428290 0.000000 0.000000 0.000000 12.413046 -14.960623 4.251975 32.937302 -40.059605 -6.776371 -29.003906 0.000000 0.000000 6.992188 16.005859 -44.997307 -6.427974 8.898234 2.089853 -23.562155 30.635885 -4.234776 28.994143 0.000000 0.000000 -7.001954 -15.996095 45.009769 -2.421529 22.278831 2.980507 3.503625 -5.046453 0.014789 -5.308388 -0.795328 -0.765557 -2.411816 -22.318930 -3.020798 3.503799 5.034272 -0.024803 -5.287191 0.780692 0.753910 
0.000000 -3.972732 0.000000 0.000000 0.000000 0.000000 4.160801 -2.109345 -0.267163 -4.153792 2.123133 0.113318 2.076625 4.183936 -0.428290 0.000000 0.000000 0.000000 12.413046 -14.960623 4.251975 32.937302 -40.059605 -6.776371 -29.003906 0.000000 0.000000 6.992188 16.005859 -44.997307 -6.427974 8.898234 2.089853 -23.562155 30.635885 -4.234776 28.994143 0.000000 0.000000 -7.001954 -15.996095 45.009769 -2.421529 22.278831 2.980507 3.503625 -5.046453 0.014789 -5.308388 -0.795328 -0.765557 -2.411816 -22.318930 -3.020798 3.503799 5.034272 -0.024803 -5.287191 0.780692 0.753910 
0.000000 -3.972732 0.000000 0.000000 0.000000 0.000000 4.160801 -2.109345 -0.267163 -4.153792 2.123133 0.113318 2.076625 4.183936 -0.428290 0.000000 0.000000 0.000000 12.413046 -14.960623 4.251975 32.937302 -40.059605 -6.776371 -29.003906 0.000000 0.000000 6.992188 16.005859 -44.997307 -6.427974 8.898234 2.089853 -23.562155 30.635885 -4.234776 28.994143 0.000000 0.000000 -7.001954 -15.996095 45.009769 -2.421529 22.278831 2.980507 3.503625 -5.046453 0.014789 -5.308388 -0.795328 -0.765557 -2.411816 -22.318930 -3.020798 3.503799 5.034272 -0.024803 -5.287191 0.780692 0.753910 
0.000000 -3.972732 0.000000 0.000000 0.000000 0.000000 4.160801 -2.109345 -0.267163 -4.153792 2.123133 0.113318 2.076625 4.183936 -0.428290 0.000000 0.000000 0.000000 12.413046 -14.960623 4.251975 32.937302 -40.059605 -6.776371 -29.003906 0.000000 0.000000 6.992188 16.005859 -44.997307 -6.427974 8.898234 2.089853 -23.562155 30.635885 -4.234776 28.994143 0.000000 0.000000 -7.001954 -15.996095 45.009769 -2.421529 22.278831 2.980507 3.503625 -5.046453 0.014789 -5.308388 -0.795328 -0.765557 -2.411816 -22.318930 -3.020798 3.503799 5.034272 -0.024803 -5.287191 0.780692 0.753910 
0.000000 -3.972732 0.000000 0.000000 0.000000 0.000000 4.160801 -2.109345 -0.267163 -4.153792 2.123133 0.113318 2.076625 4.183936 -0.428290 0.000000 0.000000 0.000000 12.413046 -14.960623 4.251975 32.937302 -40.059605 -6.776371 -29.003906 0.000000 0.000000 6.992188 16.005859 -44.997307 -6.427974 8.898234 2.089853 -23.562155 30.635885 -4.234776 28.994143 0.000000 0.000000 -7.001954 -15.996095 45.009769 -2.421529 22.278831 2.980507 3.503625 -5.046453 0.014789 -5.308388 -0.795328 -0.765557 -2.411816 -22.318930 -3.020798 3.503799 5.034272 -0.024803 -5.287191 0.780692 0.753910 
0.000000 -3.972732 0.000000 0.000000 0.000000 0.000000 4.160801 -2.109345 -0.267163 -4.153792 2.123133 0.113318 2.076625 4.183936 -0.428290 0.000000 0.000000 0.000000 12.413046 -14.960623 4.251975 32.937302 -40.059605 -6.776371 -29.003906 0.000000 0.000000 6.992188 16.005859 -44.997307 -6.427974 8.898234 2.089853 -23.562155 30.635885 -4.234776 28.994143 0.000000 0.000000 -7.001954 -15.996095 45.009769 -2.421529 22.278831 2.980507 3.503625 -5.046453 0.014789 -5.308388 -0.795328 -0.765557 -2.411816 -22.318930 -3.020798 3.503799 5.034272 -0.024803 -5.287191 0.780692 0.753910 
0.000000 -3.972732 0.000000 0.000000 0.000000 0.000000 4.160801 -2.109345 -0.267163 -4.153792 2.123133 0.113318 2.076625 4.183936 -0.428290 0.000000 0.000000 0.000000 12.413046 -14.960623 4.251975 32.937302 -40.059605 -6.776371 -29.003906 0.000000 0.000000 6.992188 16.005859 -44.997307 -6.427974 8.898234 2.089853 -23.562155 30.635885 -4.234776 28.994143 0.000000 0.000000 -7.001954 -15.996095 45.009769 -2.421529 22.278831 2.980507 3.503625 -5.046453 0.014789 -5.308388 -0.795328 -0.765557 -2.411816 -22.318930 -3.020798 3.503799 5.034272 -0.024803 -5.287191 0.780692 0.753910 
0.000000 -3.972732 0.000000 0.000000 0.000000 0.000000 4.160801 -2.109345 -0.267163 -4.153792 2.123133 0.113318 2.076625 4.183936 -0.428290 0.000000 0.000000 0.000000 12.413046 -14.960623 4.251975 32.937302 -40.059605 -6.776371 -29.003906 0.000000 0.000000 6.992188 16.005859 -44.997307 -6.427974 8.898234 2.089853 -23.562155 30.635885 -4.234776 28.994143 0.000000 0.000000 -7.001954 -15.996095 45.009769 -2.421529 22.278831 2.980507 3.503625 -5.046453 0.014789 -5.308388 -0.795328 -0.765557 -2.411816 -22.318930 -3.020798 3.503799 5.034272 -0.024803 -5.287191 0.780692 0.753910 
0.000000 -3.972732 0.000000 0.000000 0.000000 0.000000 4.160801 -2.109345 -0.267163 -4.153792 2.123133 0.113318 2.076625 4.183936 -0.428290 0.000000 0.000000 0.000000 12.413046 -14.960623 4.251975 32.937302 -40.059605 -6.776371 -29.003906 0.000000 0.000000 6.992188 16.005859 -44.997307 -6.427974 8.898234 2.089853 -23.562155 30.635885 -4.234776 28.994143 0.000000 0.000000 -7.001954 -15.996095 45.009769 -2.421529 22.278831 2.980507 3.503625 -5.046453 0.014789 -5.308388 -0.795328 -0.765557 -2.411816 -22.318930 -3.020798 3.503799 5.034272 -0.024803 -5.287191 0.780692 0.753910 
0.000000 -3.972732 0.000000 0.000000 0.000000 0.000000 4.160801 -2.109345 -0.267163 -4.153792 2.123133 0.113318 2.076625 4.183936 -0.428290 0.000000 0.000000 0.000000 12.413046 -14.960623 4.251975 32.937302 -40.059605 -6.776371 -29.003906 0.000000 0.000000 6.992188 16.005859 -44.997307 -6.427974 8.898234 2.089853 -23.562155 30.635885 -4.234776 28.994143 0.000000 0.000000 -7.001954 -15.996095 45.009769 -2.421529 22.278831 2.980507 3.503625 -5.046453 0.014789 -5.308388 -0.795328 -0.765557 -2.411816 -22.318930 -3.020798 3.503799 5.034272 -0.024803 -5.287191 0.780692 0.753910 
-37.695019 49.139648 -48.739548 -5.094758 -7.660989 74.495644 7.368955 5.011574 3.698687 -5.236467 4.125618 1.021898 -11.544395 -5.612446 -3.286182 26.584507 9.816604 -4.956572 12.413046 -14.960623 4.251975 -64.042191 -41.158108 32.371719 -58.987011 9.713985 10.941048 6.992188 16.005859 -56.882069 -6.427974 8.898234 2.089853 50.518291 51.248009 -5.081124 54.146347 -8.943316 8.898996 -7.001954 -15.996095 70.488281 -16.930998 8.924438 -0.874723 41.769577 -5.018235 -3.175831 -28.614204 -8.782551 -3.794027 -13.788406 1.337912 -8.102734 37.122730 5.116522 2.785222 -27.030279 2.776922 0.655689 
-37.639347 49.119316 -48.768635 -5.258732 -7.725111 75.274307 7.390032 5.246757 4.112228 -5.334674 3.543555 1.124562 -11.872232 -6.028872 -3.437388 27.491447 10.942410 -5.033422 12.413046 -14.960623 4.251975 -63.643818 -41.209743 32.825268 -58.858212 9.695141 10.886033 6.992188 16.005859 -56.032463 -6.427974 8.898234 2.089853 50.301548 51.584278 -5.487643 54.389847 -8.992702 9.001816 -7.001954 -15.996095 70.888672 -17.317612 9.010340 -0.807032 42.155563 -5.002364 -3.224342 -28.814569 -9.009993 -3.930140 -13.670228 1.289152 -8.572579 37.042534 5.126085 2.775461 -27.131506 2.623262 0.582492 
-37.587421 49.109936 -48.790524 -5.714777 -7.884243 75.989044 7.378906 5.881128 4.465769 -5.354221 3.516490 1.211839 -11.750489 -6.133710 -3.665434 27.263115 11.128822 -5.470822 12.413046 -14.960623 4.251975 -63.779240 -41.148960 33.025848 -58.804779 9.688015 10.862753 6.992188 16.005859 -55.710194 -6.427974 8.898234 2.089853 49.432255 52.065723 -5.604664 54.748486 -9.057083 9.149454 -7.001954 -15.996095 71.806641 -17.898289 9.442284 -1.186636 42.727165 -4.999031 -3.266449 -28.721724 -9.733651 -4.330581 -13.448007 1.592128 -9.128771 36.841789 5.152024 2.755745 -27.221859 2.607678 0.550215 
-37.548641 49.089291 -48.814919 -5.905003 -7.918219 76.533257 7.519701 6.134432 4.627695 -5.393006 4.104383 1.255369 -11.891366 -7.699262 -3.377533 27.477180 12.335352 -4.864151 12.413046 -14.960623 4.251975 -64.322823 -40.915096 32.847713 -58.795231 9.690631 10.861109 6.992188 16.005859 -55.729729 -6.427974 8.898234 2.089853 48.233524 52.799770 -5.866666 54.982483 -9.105606 9.252161 -7.001954 -15.996095 72.119141 -18.256504 9.567736 -1.301456 43.212826 -4.966566 -3.302675 -28.575403 -10.163173 -4.574013 -13.284179 1.611583 -9.556139 36.744053 5.142171 2.729083 -27.284769 2.680960 0.581821 
-37.511421 49.095234 -48.829929 -5.980362 -7.822892 77.032524 7.710166 6.220320 4.895188 -5.187277 4.325672 1.334338 -11.806560 -8.474079 -3.415554 26.816071 12.794825 -5.040810 12.413046 -14.960623 4.251975 -64.650551 -41.043480 32.318985 -58.677399 9.673695 10.806408 6.992188 16.005859 -56.462147 -6.427974 8.898234 2.089853 47.388653 53.757908 -6.553859 55.045494 -9.115071 9.273507 -7.001954 -15.996095 71.806641 -18.517031 9.536958 -1.423812 43.707096 -4.946827 -3.354515 -28.569294 -10.151081 -4.564648 -13.098570 1.582331 -9.762893 36.655357 5.142136 2.744953 -27.329302 2.356721 0.417007 
